<svg preserveAspectRatio="none" overflow="visible" style="display: block;" width="12" height="12" viewBox="0 0 12 12" fill="none" xmlns="http://www.w3.org/2000/svg">
<g id="Container">
<path id="Icon" d="M6 10.5C7.25 10.5 8.30625 10.0625 9.16875 9.1875C10.0312 8.3125 10.475 7.25 10.5 6V1.5H6C4.75 1.525 3.6875 1.96875 2.8125 2.83125C1.9375 3.69375 1.5 4.75 1.5 6C1.5 7.25 1.9375 8.3125 2.8125 9.1875C3.6875 10.0625 4.75 10.5 6 10.5V10.5M5.11875 9.24375L8.56875 6.16875C8.68125 6.06875 8.7125 5.95 8.6625 5.8125C8.6125 5.675 8.5125 5.59375 8.3625 5.56875L5.6625 5.30625L7.275 3.075C7.3125 3.0125 7.33437 2.95312 7.34062 2.89687C7.34687 2.84062 7.325 2.7875 7.275 2.7375C7.225 2.675 7.1625 2.64688 7.0875 2.65313C7.0125 2.65938 6.94375 2.6875 6.88125 2.7375L3.45 5.8125C3.3375 5.9125 3.30625 6.03125 3.35625 6.16875C3.40625 6.30625 3.50625 6.3875 3.65625 6.4125L6.35625 6.675L4.725 8.90625C4.6875 8.96875 4.66875 9.02813 4.66875 9.08438C4.66875 9.14063 4.69375 9.19375 4.74375 9.24375C4.79375 9.29375 4.85312 9.31875 4.92188 9.31875C4.99063 9.31875 5.05625 9.29375 5.11875 9.24375V9.24375M6 12C5.3 12 4.64062 11.8906 4.02187 11.6719C3.40312 11.4531 2.8375 11.1437 2.325 10.7437L1.29375 11.775C1.21875 11.85 1.13437 11.9063 1.04062 11.9438C0.946875 11.9813 0.85 12 0.75 12C0.5375 12 0.359375 11.9281 0.215625 11.7844C0.071875 11.6406 0 11.4625 0 11.25C0 11.15 0.01875 11.0531 0.05625 10.9594C0.09375 10.8656 0.15 10.7813 0.225 10.7063L1.25625 9.675C0.85625 9.1625 0.546875 8.59688 0.328125 7.97813C0.109375 7.35938 0 6.7 0 6C0 4.325 0.58125 2.90625 1.74375 1.74375C2.90625 0.58125 4.325 0 6 0H12V6C12 7.675 11.4188 9.09375 10.2563 10.2563C9.09375 11.4188 7.675 12 6 12V12M6 6V6V6V6V6V6V6V6V6V6" fill="#4EDEA3"/>
</g>
</svg>
